<svg width="180" height="35" viewBox="0 0 180 35" fill="none" xmlns="http://www.w3.org/2000/svg">
<g clip-path="url(#clip0_134_29)">
<path d="M0 0C11.4529 0 22.9058 0 34.7057 0C34.7057 11.55 34.7057 23.1 34.7057 35C23.2528 35 11.7999 35 0 35C0 23.45 0 11.9 0 0ZM27.7497 2.11278C27.6936 2.13799 27.6375 2.16321 27.5796 2.18919C27.519 2.21682 27.4584 2.24444 27.396 2.2729C27.302 2.31535 27.302 2.31535 27.2062 2.35865C26.6046 2.63089 26.0055 2.90862 25.4076 3.18892C25.276 3.25055 25.1441 3.31176 25.0122 3.37281C24.5485 3.58839 24.0957 3.82096 23.6451 4.06297C23.4626 4.16095 23.2792 4.25707 23.0951 4.35201C22.4118 4.70498 21.7455 5.08075 21.0856 5.47627C20.9306 5.56888 20.7751 5.66044 20.6194 5.75184C19.2539 6.55878 17.8981 7.44404 16.6385 8.41169C16.6042 8.43785 16.5699 8.464 16.5345 8.49094C16.4332 8.56835 16.332 8.64602 16.2308 8.72372C16.1728 8.76793 16.1149 8.81214 16.0569 8.85634C15.2055 9.50964 14.381 10.1983 13.5885 10.9229C13.5026 11.0015 13.4162 11.0796 13.3296 11.1574C13.1016 11.3621 12.8801 11.5699 12.666 11.7894C12.5745 11.8799 12.4794 11.9638 12.3818 12.0477C11.9944 12.3848 11.6369 12.7552 11.3046 13.1472C11.2193 13.2448 11.1301 13.3361 11.038 13.4272C10.8443 13.6197 10.667 13.8235 10.49 14.0315C10.4439 14.0851 10.3977 14.1387 10.3516 14.1923C9.78197 14.8551 9.22953 15.531 8.71557 16.2387C8.69085 16.2724 8.66612 16.3061 8.64065 16.3408C8.03214 17.1703 7.46612 18.0277 6.95011 18.9187C6.90758 18.992 6.86474 19.065 6.82168 19.138C5.76388 20.9305 4.92374 22.8243 4.2795 24.8048C4.24656 24.904 4.2136 25.0031 4.18063 25.1023C3.29951 27.7848 2.87743 30.6515 2.92259 33.476C2.95703 33.476 2.99148 33.476 3.02696 33.476C3.07267 33.3379 3.08894 33.2421 3.09791 33.0995C3.37754 29.1238 4.64888 25.1748 6.6802 21.7568C6.7252 21.6803 6.7252 21.6803 6.77112 21.6023C7.15311 20.9543 7.54784 20.319 7.98492 19.7072C8.01289 19.6679 8.04086 19.6287 8.06968 19.5882C8.46879 19.0302 8.88389 18.4885 9.31949 17.9589C9.426 17.8288 9.53046 17.6971 9.6354 17.5657C9.86493 17.2833 10.1088 17.0163 10.3557 16.7494C10.4159 16.6832 10.4755 16.6162 10.5345 16.5489C10.858 16.1808 11.1988 15.8323 11.5443 15.4855C11.6416 15.3878 11.7386 15.2899 11.8356 15.1919C12.1437 14.8814 12.4533 14.5779 12.7863 14.2943C12.8702 14.2179 12.954 14.1412 13.0375 14.0644C13.3114 13.8158 13.595 13.5811 13.8823 13.3483C13.9402 13.3009 13.9981 13.2535 14.056 13.2061C15.1992 12.273 16.3937 11.404 17.6399 10.6156C17.6893 10.5843 17.7386 10.553 17.7895 10.5208C18.5627 10.0323 19.346 9.56718 20.1462 9.12503C20.2966 9.04176 20.4465 8.95767 20.5963 8.87338C21.2231 8.52247 21.8606 8.2023 22.5102 7.89653C22.6388 7.83565 22.7668 7.77376 22.8947 7.71127C23.6199 7.35781 24.3602 7.04076 25.1029 6.72673C25.1594 6.70275 25.2159 6.67876 25.2741 6.65406C26.0234 6.33714 26.7803 6.04409 27.5428 5.76107C27.5845 5.74557 27.6262 5.73006 27.6692 5.71408C28.3986 5.44354 28.3986 5.44354 28.7269 5.3365C28.7816 5.31865 28.7816 5.31865 28.8374 5.30044C28.9365 5.26841 29.0358 5.23701 29.1352 5.20565C29.2848 5.16608 29.2848 5.16608 29.3302 5.04504C29.3002 4.92962 29.3002 4.92962 29.2476 4.79858C29.2283 4.74733 29.2089 4.69609 29.189 4.6433C29.1568 4.55988 29.1568 4.55988 29.1239 4.47477C29.1022 4.41759 29.0805 4.36041 29.0581 4.3015C28.9883 4.11783 28.9179 3.93439 28.8475 3.75094C28.8008 3.6284 28.7541 3.50584 28.7074 3.38328C28.6213 3.15699 28.5349 2.9308 28.4483 2.70469C28.3582 2.46928 28.2696 2.23338 28.1821 1.997C28.0035 1.997 27.912 2.03942 27.7497 2.11278ZM12.9951 2.78529C12.2072 3.46387 11.4266 4.14299 10.6988 4.88739C10.551 5.03664 10.4027 5.18523 10.2539 5.33347C9.92085 5.66601 9.5912 5.99673 9.28965 6.35886C9.24291 6.41319 9.19608 6.46745 9.14919 6.52165C7.83303 8.04699 6.68669 9.7048 5.68861 11.4565C5.66834 11.4918 5.64807 11.5271 5.62719 11.5635C3.36863 15.5147 1.99674 20.0441 1.46129 24.7523C1.45412 24.8155 1.44695 24.8788 1.43956 24.944C1.38812 25.4051 1.34405 25.8666 1.30473 26.3288C1.2992 26.3925 1.29368 26.4563 1.28798 26.5219C1.12429 28.4936 1.12263 30.5073 1.30473 32.4775C1.30946 32.5307 1.31419 32.5839 1.31907 32.6387C1.33706 33.124 1.33706 33.124 1.46129 33.5811C1.49574 33.5637 1.53018 33.5464 1.56567 33.5285C1.56512 33.4625 1.56458 33.3965 1.56401 33.3285C1.53947 30.0632 1.84253 26.8774 2.60945 23.7012C2.61756 23.6675 2.62567 23.6337 2.63402 23.5989C2.8779 22.5849 3.16591 21.5897 3.49667 20.6006C3.5257 20.5119 3.55471 20.4231 3.58372 20.3343C4.29446 18.1948 5.25774 16.1156 6.41925 14.1892C6.45143 14.1356 6.48362 14.0821 6.51678 14.0269C6.91845 13.3613 7.33683 12.7142 7.80012 12.0904C7.87945 11.9835 7.95795 11.8759 8.0363 11.7683C8.53499 11.0865 9.06229 10.426 9.6352 9.80577C9.70093 9.73372 9.76637 9.66134 9.82925 9.58675C10.124 9.2378 10.4458 8.91607 10.7673 8.59238C10.8677 8.49121 10.9676 8.38962 11.0675 8.28801C11.3953 7.95646 11.7243 7.63974 12.0901 7.35062C12.2168 7.24857 12.3352 7.1405 12.4536 7.0289C13.1633 6.37958 13.9723 5.79042 14.7695 5.25526C14.7032 5.07164 14.6272 4.92695 14.5094 4.77202C14.4781 4.73052 14.4468 4.68902 14.4146 4.64627C14.381 4.60227 14.3474 4.55828 14.3128 4.51295C14.2421 4.41931 14.1715 4.32563 14.1008 4.23192C14.0466 4.16016 14.0466 4.16016 13.9914 4.08696C13.7862 3.81322 13.5858 3.5359 13.3855 3.25854C13.357 3.21936 13.3286 3.18018 13.2992 3.13981C13.2744 3.10549 13.2496 3.07118 13.2241 3.03582C13.1532 2.94496 13.0779 2.86507 12.9951 2.78529ZM29.6513 9.09159C29.6145 9.1035 29.5776 9.11541 29.5396 9.12768C29.4164 9.16772 29.2934 9.20843 29.1704 9.24925C29.1064 9.27033 29.1064 9.27033 29.0412 9.29184C26.8714 10.0079 24.7412 10.8386 22.6659 11.7975C22.4964 11.8755 22.3265 11.9526 22.1565 12.0294C21.5577 12.3009 20.9718 12.5878 20.3942 12.9023C20.2586 12.9755 20.1224 13.0475 19.9859 13.1192C18.7295 13.7788 17.5135 14.4994 16.3352 15.2928C16.2966 15.3187 16.258 15.3447 16.2182 15.3714C15.2839 16.0023 14.3808 16.6691 13.517 17.3949C13.4861 17.4207 13.4553 17.4465 13.4236 17.4731C13.0471 17.7892 12.6788 18.1133 12.3166 18.4459C12.2721 18.4858 12.2277 18.5257 12.1819 18.5669C11.8281 18.8872 11.489 19.2212 11.1521 19.5594C11.0858 19.6259 11.0858 19.6259 11.018 19.6937C10.7616 19.9526 10.5174 20.2179 10.2812 20.4955C10.2279 20.5563 10.1745 20.617 10.121 20.6776C9.69813 21.1601 9.30645 21.6615 8.92433 22.1772C8.87431 22.244 8.8243 22.3107 8.77428 22.3775C8.16382 23.1981 7.64381 24.0668 7.1499 24.9625C7.12878 25.0004 7.10767 25.0383 7.08591 25.0773C5.77677 27.4361 4.54591 30.7127 4.59264 33.476C4.62708 33.476 4.66153 33.476 4.69701 33.476C4.7123 33.4111 4.7123 33.4111 4.72789 33.345C5.64108 29.4982 7.23081 25.9335 9.93263 23.0192C10.0306 22.9135 10.0306 22.9135 10.0725 22.7553C10.1069 22.7553 10.1414 22.7553 10.1769 22.7553C10.2481 22.6843 10.2481 22.6843 10.3236 22.5877C10.6924 22.1511 11.1032 21.7416 11.5372 21.3708C11.654 21.2701 11.7664 21.1653 11.8795 21.0604C12.1707 20.7962 12.4771 20.555 12.787 20.3139C12.8964 20.2282 13.0049 20.1415 13.1133 20.0545C13.6116 19.6565 14.1218 19.2882 14.6559 18.9406C14.765 18.8693 14.8734 18.7971 14.9817 18.7245C19.1937 15.9175 24.0308 14.26 31.0003 12.5075C30.7798 11.6092 30.559 10.7109 30.3259 9.81585C30.308 9.74692 30.2902 9.67795 30.2726 9.60894C30.2482 9.51336 30.2232 9.41794 30.1981 9.32254C30.1841 9.2688 30.1702 9.21507 30.1558 9.15971C30.0614 8.89306 29.8594 9.02268 29.6513 9.09159ZM28.8895 18.0719C28.8462 18.0769 28.8029 18.0818 28.7583 18.087C27.6019 18.2209 26.4547 18.3811 25.3117 18.6036C25.2737 18.611 25.2358 18.6183 25.1967 18.6259C21.235 19.3973 17.3676 20.8185 13.9964 23.0739C13.9669 23.0936 13.9373 23.1133 13.9069 23.1336C13.4874 23.4143 13.0817 23.7082 12.6819 24.0165C12.6473 24.043 12.6127 24.0696 12.5771 24.0969C12.2216 24.3707 11.8758 24.6549 11.537 24.9493C11.5056 24.9766 11.4742 25.0038 11.4418 25.0319C11.2523 25.1982 11.074 25.3721 10.8977 25.5524C10.8002 25.6485 10.699 25.7381 10.5954 25.8275C10.3845 26.011 10.1933 26.2084 10.004 26.4142C9.9702 26.4508 9.93642 26.4874 9.90161 26.525C8.07079 28.5194 6.70445 30.8305 5.89736 33.4234C5.93181 33.4581 5.96625 33.4928 6.00174 33.5285C6.02094 33.4838 6.02094 33.4838 6.04054 33.4382C7.05434 31.0955 8.65156 28.8113 10.6653 27.2267C10.7918 27.1261 10.9129 27.0209 11.0339 26.9137C11.4514 26.5463 11.905 26.2387 12.3655 25.9289C12.4945 25.8414 12.621 25.7504 12.7472 25.6588C13.0787 25.4245 13.4279 25.2196 13.7779 25.015C13.8123 24.9948 13.8467 24.9745 13.8822 24.9537C18.0381 22.522 22.8722 21.5492 29.6956 21.3889C29.6619 19.7066 29.6619 19.7066 29.5912 18.0255C29.3549 18.0189 29.1238 18.0447 28.8895 18.0719Z" fill="#2962FF"/>
<path d="M42.5864 2.83789C43.5509 2.83789 44.5153 2.83789 45.509 2.83789C45.8517 3.30849 46.187 3.77328 46.5039 4.26009C46.8359 4.76599 46.8359 4.76599 47.1823 5.26188C47.5064 5.71245 47.8145 6.17393 48.1248 6.63412C48.2745 6.85581 48.4247 7.07708 48.5751 7.29829C48.6169 7.35973 48.6169 7.35973 48.6595 7.42242C48.8586 7.71534 49.0583 8.00791 49.2581 8.30035C49.4731 8.61511 49.6873 8.93045 49.9015 9.24581C50.0809 9.50999 50.2607 9.77392 50.4409 10.0376C50.6501 10.3438 50.8588 10.6504 51.0671 10.9573C51.2844 11.2771 51.5017 11.5969 51.7195 11.9163C51.7421 11.9495 51.7646 11.9827 51.7879 12.0168C51.8518 12.1105 51.9161 12.204 51.9805 12.2973C52.0154 12.3486 52.0154 12.3486 52.051 12.4009C52.1716 12.5881 52.1716 12.5881 52.3458 12.7178C52.3458 9.45741 52.3458 6.19705 52.3458 2.83789C53.4308 2.83789 54.5158 2.83789 55.6337 2.83789C55.6337 8.04059 55.6337 13.2433 55.6337 18.6037C54.6865 18.6037 53.7392 18.6037 52.7633 18.6037C52.1103 17.7069 52.1103 17.7069 51.8141 17.2636C51.5396 16.8554 51.2625 16.4493 50.9823 16.045C50.7306 15.6816 50.4801 15.3174 50.2321 14.9513C49.982 14.5819 49.7293 14.2144 49.4754 13.8477C49.2215 13.4809 48.9688 13.1134 48.7186 12.744C48.4309 12.3192 48.1396 11.8969 47.8477 11.475C47.5765 11.083 47.3071 10.6898 47.0388 10.2958C46.9409 10.152 46.8429 10.0083 46.7449 9.86455C46.6959 9.79275 46.6469 9.72092 46.598 9.64908C46.4319 9.40538 46.2627 9.16401 46.0906 8.92454C46.0309 8.82888 46.0309 8.82888 46.0309 8.72378C45.9965 8.72378 45.962 8.72378 45.9265 8.72378C45.9265 11.9841 45.9265 15.2445 45.9265 18.6037C44.8243 18.6037 43.7221 18.6037 42.5864 18.6037C42.5864 13.401 42.5864 8.19825 42.5864 2.83789Z" fill="#2962FF"/>
<path d="M84.3896 2.83789C87.8686 2.83789 91.3475 2.83789 94.9318 2.83789C94.9318 3.75703 94.9318 4.67618 94.9318 5.62318C92.5551 5.62318 90.1785 5.62318 87.7297 5.62318C87.7297 6.85448 87.7297 8.08579 87.7297 9.35441C89.9342 9.35441 92.1387 9.35441 94.4099 9.35441C94.4099 10.2736 94.4099 11.1927 94.4099 12.1397C92.2055 12.1397 90.001 12.1397 87.7297 12.1397C87.7297 13.3537 87.7297 14.5676 87.7297 15.8184C90.1237 15.8184 92.5176 15.8184 94.984 15.8184C94.984 16.7375 94.984 17.6567 94.984 18.6037C91.4879 18.6037 87.9917 18.6037 84.3896 18.6037C84.3896 13.401 84.3896 8.19825 84.3896 2.83789Z" fill="#2962FF"/>
<path d="M67.4313 8.07924C68.1695 8.76951 68.6177 9.80074 68.8376 10.7732C68.8461 10.8107 68.8546 10.8483 68.8634 10.887C69.0542 11.7785 68.9941 12.6358 68.9941 13.5585C66.3763 13.5585 63.7585 13.5585 61.0614 13.5585C61.1666 14.4058 61.2914 15.207 61.9786 15.7708C62.6604 16.2321 63.4068 16.3814 64.218 16.2651C64.7399 16.1559 65.2751 15.9402 65.5843 15.4783C65.6831 15.3142 65.7775 15.1491 65.8628 14.9774C66.5822 15.0013 67.3006 15.0351 68.0188 15.0825C68.1205 15.089 68.1205 15.089 68.2242 15.0957C68.2875 15.1 68.3509 15.1043 68.4162 15.1088C68.4724 15.1126 68.5286 15.1163 68.5865 15.1203C68.7107 15.1328 68.8223 15.1528 68.9419 15.1876C68.8102 15.9174 68.4836 16.5726 68.0025 17.132C67.9712 17.1742 67.9398 17.2163 67.9075 17.2597C67.7779 17.4137 67.6336 17.5337 67.4741 17.6543C67.444 17.6772 67.4138 17.7001 67.3828 17.7237C66.2714 18.5577 65.0171 18.8257 63.6513 18.8269C63.614 18.8269 63.5768 18.8269 63.5384 18.827C61.9436 18.8246 60.552 18.3723 59.3604 17.2616C58.3039 16.1718 57.8164 14.6371 57.7735 13.138C57.7714 13.0781 57.7693 13.0181 57.7672 12.9564C57.7378 11.3244 58.1259 9.73006 59.1826 8.46086C59.2046 8.43112 59.2266 8.40138 59.2492 8.37074C60.01 7.38112 61.3032 6.84198 62.4987 6.66218C64.3402 6.42714 66.0126 6.87066 67.4313 8.07924ZM61.6518 9.91263C61.2905 10.3543 61.0614 10.8834 61.0614 11.4564C62.6631 11.4564 64.2648 11.4564 65.915 11.4564C65.8155 10.7554 65.6931 10.1445 65.1539 9.65623C64.069 8.86728 62.5962 8.90522 61.6518 9.91263Z" fill="#2962FF"/>
<path d="M128.594 6.7793C129.679 6.7793 130.764 6.7793 131.882 6.7793C131.884 7.29489 131.886 7.81049 131.888 8.34171C131.889 8.6691 131.891 8.99649 131.893 9.32389C131.896 9.8431 131.898 10.3623 131.9 10.8815C131.901 11.2597 131.903 11.638 131.905 12.0162C131.907 12.2162 131.908 12.4162 131.908 12.6162C131.908 12.805 131.909 12.9938 131.911 13.1826C131.911 13.2839 131.911 13.3851 131.911 13.4863C131.918 14.167 132.021 14.8137 132.482 15.3355C132.525 15.3734 132.568 15.4114 132.613 15.4505C132.649 15.4862 132.686 15.522 132.723 15.5589C133.216 15.893 133.758 15.9379 134.335 15.8709C134.884 15.7513 135.338 15.4537 135.666 14.9956C136.044 14.3999 136.072 13.747 136.074 13.0556C136.074 12.9873 136.075 12.9191 136.075 12.8487C136.077 12.6636 136.077 12.4786 136.078 12.2935C136.079 12.0993 136.08 11.905 136.082 11.7108C136.084 11.344 136.086 10.9772 136.088 10.6104C136.09 10.114 136.093 9.61767 136.096 9.12132C136.101 8.34065 136.105 7.55997 136.109 6.7793C137.194 6.7793 138.279 6.7793 139.397 6.7793C139.397 10.6813 139.397 14.5834 139.397 18.6036C138.347 18.6036 137.296 18.6036 136.214 18.6036C136.196 17.9099 136.179 17.2162 136.161 16.5015C136.024 16.7617 135.886 17.0218 135.744 17.2898C135.071 18.1235 134.207 18.6313 133.136 18.7519C131.932 18.8583 130.843 18.5829 129.892 17.8055C129.009 16.987 128.639 15.7984 128.585 14.62C128.581 14.4107 128.581 14.2016 128.582 13.9922C128.582 13.9129 128.582 13.8336 128.582 13.7543C128.582 13.5416 128.583 13.3289 128.583 13.1163C128.584 12.893 128.584 12.6698 128.584 12.4466C128.585 12.025 128.585 11.6035 128.586 11.1819C128.588 10.7015 128.588 10.2211 128.589 9.7407C128.59 8.75356 128.592 7.76643 128.594 6.7793Z" fill="#2962FF"/>
<path d="M165.006 7.73875C165.081 7.80404 165.156 7.86967 165.231 7.93582C165.283 7.97593 165.336 8.01603 165.391 8.05735C166.535 9.11189 167.066 10.7068 167.156 12.2306C167.215 14.0436 166.851 15.8214 165.596 17.1851C165.061 17.7377 164.432 18.1648 163.717 18.4463C163.67 18.4651 163.623 18.4839 163.574 18.5032C162.321 18.9609 160.769 18.9794 159.49 18.604C159.456 18.5942 159.422 18.5843 159.387 18.5742C158.08 18.1809 157.004 17.2874 156.35 16.0887C155.441 14.3584 155.344 12.2765 155.904 10.4175C156.345 9.01361 157.263 7.90076 158.551 7.20009C160.488 6.21399 163.285 6.36463 165.006 7.73875ZM159.797 9.82115C159.206 10.5412 158.948 11.4816 158.916 12.4028C158.913 12.4749 158.913 12.4749 158.91 12.5485C158.886 13.5931 159.087 14.7246 159.748 15.5625C160.128 15.9596 160.636 16.2171 161.182 16.2498C161.884 16.2586 162.342 16.136 162.882 15.661C163.746 14.7613 163.798 13.4575 163.784 12.2839C163.775 11.8262 163.709 11.4157 163.561 10.9839C163.542 10.9268 163.523 10.8697 163.503 10.8108C163.269 10.1807 162.881 9.66155 162.289 9.34017C161.435 8.9536 160.449 9.15408 159.797 9.82115Z" fill="#2962FF"/>
<path d="M118.783 7.90483C118.835 7.94954 118.886 7.99425 118.939 8.04031C118.975 8.07093 119.01 8.10155 119.047 8.1331C120.137 9.14619 120.653 10.78 120.72 12.2292C120.77 14.0606 120.418 15.7904 119.165 17.181C118.175 18.2313 116.797 18.7852 115.37 18.8286C114.655 18.8431 113.945 18.8445 113.25 18.6559C113.213 18.6458 113.175 18.6356 113.137 18.6251C111.789 18.2478 110.675 17.4288 109.975 16.1958C109.137 14.6539 108.868 12.5881 109.336 10.8782C109.348 10.8348 109.36 10.7914 109.372 10.7467C109.787 9.27204 110.621 8.07127 111.958 7.30055C114.034 6.14383 116.962 6.36673 118.783 7.90483ZM113.583 9.62736C112.832 10.3455 112.533 11.3116 112.504 12.3375C112.503 12.4609 112.503 12.5843 112.503 12.7076C112.504 12.7723 112.504 12.837 112.504 12.9036C112.51 13.3679 112.543 13.7945 112.676 14.2415C112.691 14.2927 112.706 14.3438 112.722 14.3965C112.959 15.1118 113.314 15.7007 113.994 16.0546C114.488 16.2916 115.089 16.3218 115.618 16.1794C116.205 15.9681 116.627 15.5416 116.917 14.9937C117.493 13.7487 117.548 12.2047 117.112 10.9037C116.974 10.5237 116.798 10.1904 116.538 9.87965C116.51 9.84524 116.481 9.81083 116.452 9.77537C116.071 9.35331 115.618 9.21056 115.064 9.15213C114.506 9.12871 114.014 9.26482 113.583 9.62736Z" fill="#2962FF"/>
<path d="M178.513 7.40378C179.372 8.14132 179.862 9.11849 180 10.2482C180.004 10.3686 180.006 10.4891 180.006 10.6096C180.006 10.6613 180.006 10.6613 180.006 10.714C180.006 10.8283 180.006 10.9427 180.006 11.057C180.006 11.1394 180.006 11.2217 180.006 11.3041C180.006 11.527 180.006 11.7499 180.005 11.9728C180.005 12.206 180.005 12.4392 180.005 12.6724C180.005 13.1137 180.004 13.555 180.004 13.9962C180.003 14.4988 180.003 15.0013 180.003 15.5038C180.002 16.5372 180.001 17.5706 180 18.604C178.915 18.604 177.83 18.604 176.712 18.604C176.71 17.8022 176.71 17.8022 176.708 16.9841C176.707 16.6448 176.705 16.3054 176.704 15.966C176.701 15.4278 176.699 14.8896 176.698 14.3513C176.697 13.9592 176.696 13.5672 176.693 13.1751C176.692 12.9677 176.691 12.7604 176.692 12.553C176.692 12.3573 176.691 12.1616 176.689 11.9659C176.688 11.8609 176.689 11.7559 176.689 11.6509C176.682 11.0402 176.578 10.4348 176.138 9.98542C175.68 9.55107 175.166 9.42792 174.553 9.43506C174.217 9.44818 173.933 9.51176 173.633 9.67011C173.591 9.69178 173.55 9.71346 173.507 9.7358C173.021 10.0239 172.79 10.4626 172.627 10.9913C172.562 11.2507 172.53 11.4987 172.529 11.7661C172.528 11.857 172.528 11.857 172.527 11.9497C172.527 12.0154 172.526 12.0811 172.526 12.1488C172.526 12.2192 172.525 12.2897 172.525 12.3602C172.523 12.5508 172.522 12.7414 172.521 12.9321C172.52 13.1316 172.518 13.331 172.517 13.5305C172.514 13.9079 172.512 14.2854 172.51 14.6628C172.507 15.1731 172.503 15.6833 172.5 16.1935C172.495 16.997 172.49 17.8005 172.485 18.604C171.4 18.604 170.315 18.604 169.197 18.604C169.197 14.702 169.197 10.8 169.197 6.77972C170.23 6.77972 171.263 6.77972 172.328 6.77972C172.328 7.45607 172.328 8.13242 172.328 8.82926C172.474 8.68271 172.533 8.58697 172.622 8.40556C173.049 7.60134 173.778 7.04594 174.637 6.77972C175.934 6.4402 177.429 6.549 178.513 7.40378Z" fill="#2962FF"/>
<path d="M96.5498 6.7793C97.7037 6.7793 98.8576 6.7793 100.046 6.7793C100.125 7.0521 100.203 7.3249 100.284 7.60597C100.392 7.98185 100.5 8.35772 100.608 8.73359C100.622 8.78235 100.635 8.83111 100.65 8.88134C101.097 10.4389 101.545 11.9964 101.993 13.5536C102.035 13.699 102.077 13.8444 102.119 13.9898C102.147 14.0879 102.176 14.186 102.204 14.2842C102.285 14.5677 102.367 14.8512 102.447 15.1352C102.537 14.9998 102.575 14.9204 102.618 14.7694C102.63 14.7272 102.643 14.6849 102.655 14.6414C102.668 14.5951 102.681 14.5489 102.695 14.5013C102.709 14.4523 102.723 14.4034 102.737 14.3529C102.784 14.1896 102.83 14.0261 102.877 13.8626C102.91 13.7468 102.943 13.6311 102.976 13.5153C103.064 13.2077 103.151 12.9001 103.239 12.5924C103.325 12.2906 103.411 11.989 103.497 11.6873C103.617 11.2677 103.736 10.8482 103.856 10.4285C104.203 9.21171 104.551 7.99553 104.9 6.7793C106.054 6.7793 107.208 6.7793 108.397 6.7793C108.279 7.31142 108.279 7.31142 108.213 7.50232C108.191 7.56754 108.191 7.56754 108.168 7.63408C108.152 7.67995 108.136 7.72581 108.119 7.77307C108.102 7.82265 108.085 7.87223 108.067 7.9233C108.011 8.0862 107.954 8.24896 107.898 8.41171C107.858 8.52727 107.818 8.64284 107.778 8.75841C107.492 9.58124 107.203 10.4027 106.913 11.2239C106.59 12.1398 106.274 13.0582 105.96 13.9773C105.621 14.9681 105.277 15.9566 104.927 16.9436C104.893 17.0409 104.858 17.1383 104.824 17.2356C104.808 17.2813 104.791 17.327 104.775 17.3741C104.653 17.7188 104.538 18.0652 104.426 18.4132C104.378 18.5511 104.378 18.5511 104.326 18.6036C104.211 18.6086 104.095 18.6098 103.98 18.6096C103.944 18.6096 103.908 18.6096 103.87 18.6096C103.75 18.6096 103.63 18.6092 103.51 18.6088C103.427 18.6087 103.344 18.6086 103.261 18.6085C103.042 18.6083 102.824 18.6078 102.605 18.6072C102.382 18.6067 102.158 18.6065 101.935 18.6062C101.497 18.6056 101.059 18.6047 100.621 18.6036C100.29 17.6838 99.9656 16.7617 99.6453 15.838C99.5976 15.7006 99.5499 15.5632 99.5021 15.4258C99.3778 15.0675 99.2535 14.7092 99.1292 14.3509C99.0564 14.1411 98.9836 13.9313 98.9108 13.7215C98.5095 12.5647 98.1083 11.4078 97.7075 10.2509C97.6013 9.94439 97.4951 9.63793 97.3889 9.33148C97.3135 9.11384 97.2381 8.8962 97.1627 8.67854C97.1274 8.5764 97.092 8.47426 97.0566 8.37213C97.0137 8.24836 96.9708 8.12458 96.928 8.00079C96.9086 7.9451 96.8893 7.88942 96.8694 7.83204C96.8511 7.77919 96.8328 7.72633 96.8139 7.67188C96.741 7.46539 96.6646 7.2603 96.5873 7.05545C96.5498 6.93695 96.5498 6.93695 96.5498 6.7793Z" fill="#2962FF"/>
<path d="M71.8644 3.94141C72.9495 3.94141 74.0345 3.94141 75.1524 3.94141C75.1524 4.87789 75.1524 5.81438 75.1524 6.77924C75.8757 6.77924 76.599 6.77924 77.3443 6.77924C77.3443 7.61168 77.3443 8.44411 77.3443 9.30177C76.621 9.30177 75.8976 9.30177 75.1524 9.30177C75.1545 10.0893 75.1574 10.8769 75.1619 11.6645C75.164 12.0302 75.1657 12.3959 75.1665 12.7616C75.1672 13.1146 75.1691 13.4676 75.1716 13.8206C75.1723 13.9552 75.1728 14.0898 75.1728 14.2244C75.1729 14.4132 75.1743 14.6018 75.1761 14.7905C75.1758 14.846 75.1755 14.9015 75.1753 14.9587C75.1798 15.2829 75.2156 15.5527 75.4133 15.8183C75.8986 16.1339 76.4837 16.0429 77.0312 15.9759C77.1668 16.4863 77.2827 17.0006 77.3909 17.5174C77.4055 17.5868 77.4202 17.6561 77.435 17.7254C77.4561 17.824 77.4766 17.9228 77.497 18.0216C77.509 18.0793 77.5211 18.1369 77.5335 18.1964C77.553 18.3408 77.553 18.3408 77.5009 18.4985C77.3592 18.5442 77.2251 18.5794 77.0801 18.6101C77.0415 18.619 77.0029 18.6279 76.9632 18.637C75.7735 18.9032 74.2871 18.9063 73.2212 18.2433C73.0767 18.141 72.9396 18.0342 72.8038 17.9204C72.7695 17.8918 72.7352 17.8632 72.6999 17.8338C72.1825 17.3591 71.9021 16.6685 71.8532 15.974C71.8365 15.5409 71.8397 15.1075 71.8433 14.6741C71.8446 14.4848 71.8447 14.2954 71.845 14.106C71.8456 13.7487 71.8473 13.3914 71.8494 13.034C71.8518 12.6267 71.8529 12.2194 71.8539 11.812C71.8561 10.9753 71.8599 10.1385 71.8644 9.30177C71.3305 9.30177 70.7967 9.30177 70.2466 9.30177C70.2466 8.46933 70.2466 7.6369 70.2466 6.77924C70.7805 6.77924 71.3144 6.77924 71.8644 6.77924C71.8644 5.84276 71.8644 4.90627 71.8644 3.94141Z" fill="#2962FF"/>
<path d="M142.685 3.94141C143.77 3.94141 144.855 3.94141 145.973 3.94141C145.973 4.87789 145.973 5.81438 145.973 6.77924C146.696 6.77924 147.419 6.77924 148.165 6.77924C148.165 7.61168 148.165 8.44411 148.165 9.30177C147.441 9.30177 146.718 9.30177 145.973 9.30177C145.976 10.0679 145.98 10.834 145.985 11.6001C145.987 11.9558 145.989 12.3116 145.991 12.6673C145.992 13.0108 145.994 13.3543 145.997 13.6978C145.998 13.8286 145.998 13.9595 145.999 14.0904C145.999 14.2741 146.001 14.4577 146.002 14.6414C146.002 14.7221 146.002 14.7221 146.002 14.8045C146.007 15.1814 146.035 15.5574 146.302 15.8413C146.731 16.0924 147.174 16.0511 147.654 16.0017C147.701 15.9969 147.748 15.9921 147.796 15.9871C147.849 15.9816 147.849 15.9816 147.904 15.9759C147.971 16.2854 148.038 16.5949 148.104 16.9045C148.127 17.0098 148.15 17.1151 148.173 17.2203C148.206 17.3717 148.238 17.5232 148.271 17.6747C148.286 17.745 148.286 17.745 148.302 17.8169C148.347 18.0296 148.388 18.2269 148.373 18.4459C147.139 18.9406 145.628 18.9182 144.404 18.4135C144.178 18.3062 143.979 18.1777 143.781 18.0255C143.75 18.0043 143.719 17.9831 143.687 17.9612C143.12 17.5348 142.815 16.7933 142.709 16.1114C142.674 15.8149 142.678 15.5184 142.679 15.2201C142.679 15.156 142.679 15.0918 142.679 15.0257C142.679 14.8511 142.679 14.6764 142.68 14.5017C142.68 14.3187 142.68 14.1357 142.68 13.9528C142.68 13.6068 142.681 13.2608 142.681 12.9148C142.682 12.5207 142.682 12.1266 142.682 11.7325C142.683 10.9222 142.684 10.112 142.685 9.30177C142.168 9.30177 141.651 9.30177 141.119 9.30177C141.119 8.46933 141.119 7.6369 141.119 6.77924C141.636 6.77924 142.152 6.77924 142.685 6.77924C142.685 5.84276 142.685 4.90627 142.685 3.94141Z" fill="#2962FF"/>
<path d="M122.749 2.83789C123.851 2.83789 124.953 2.83789 126.089 2.83789C126.089 8.04059 126.089 13.2433 126.089 18.6037C124.986 18.6037 123.884 18.6037 122.749 18.6037C122.749 13.401 122.749 8.19825 122.749 2.83789Z" fill="#2962FF"/>
<path d="M150.252 6.7793C151.337 6.7793 152.422 6.7793 153.54 6.7793C153.54 10.6813 153.54 14.5834 153.54 18.6036C152.455 18.6036 151.37 18.6036 150.252 18.6036C150.252 14.7016 150.252 10.7996 150.252 6.7793Z" fill="#2962FF"/>
<path d="M79.0662 27.17C79.3565 27.3582 79.5277 27.6045 79.6925 27.9057C79.7109 27.879 79.7292 27.8523 79.7482 27.8248C80.0444 27.4089 80.3474 27.1111 80.8511 26.9832C81.4394 26.889 82.0198 26.9036 82.5213 27.2492C82.931 27.5777 83.1016 27.9755 83.1892 28.4838C83.2019 28.6371 83.2025 28.789 83.201 28.9427C83.201 28.9858 83.201 29.029 83.2011 29.0734C83.201 29.2142 83.2002 29.3549 83.1994 29.4956C83.1992 29.5939 83.199 29.6922 83.1989 29.7905C83.1985 30.0479 83.1975 30.3053 83.1963 30.5626C83.1953 30.8258 83.1948 31.089 83.1943 31.3521C83.1931 31.8675 83.1914 32.3828 83.1892 32.8982C82.9481 32.8982 82.7069 32.8982 82.4585 32.8982C82.4582 32.8452 82.4579 32.7921 82.4576 32.7374C82.4546 32.2364 82.4508 31.7354 82.4462 31.2344C82.4439 30.9769 82.4418 30.7193 82.4404 30.4618C82.4391 30.213 82.437 29.9643 82.4343 29.7155C82.4335 29.6208 82.4329 29.5261 82.4325 29.4314C82.432 29.2983 82.4306 29.1653 82.4289 29.0322C82.429 28.9934 82.429 28.9546 82.4291 28.9147C82.4232 28.5813 82.3347 28.3133 82.165 28.024C81.884 27.756 81.592 27.681 81.2092 27.6659C80.8628 27.678 80.5938 27.7399 80.3188 27.9583C79.8369 28.4809 79.8843 29.1567 79.8796 29.8241C79.8787 29.913 79.8776 30.0018 79.8766 30.0907C79.8739 30.3232 79.8718 30.5557 79.8699 30.7882C79.8678 31.026 79.8651 31.2638 79.8625 31.5016C79.8575 31.9671 79.8531 32.4327 79.8491 32.8982C79.608 32.8982 79.3668 32.8982 79.1184 32.8982C79.1181 32.8452 79.1178 32.7921 79.1175 32.7374C79.1145 32.2364 79.1107 31.7354 79.1061 31.2344C79.1038 30.9769 79.1017 30.7193 79.1003 30.4618C79.099 30.213 79.0969 29.9643 79.0942 29.7155C79.0934 29.6208 79.0928 29.5261 79.0924 29.4314C79.0919 29.2983 79.0905 29.1653 79.0888 29.0322C79.0889 28.9934 79.0889 28.9546 79.089 28.9147C79.0823 28.5344 78.9784 28.1776 78.7009 27.9057C78.3613 27.6417 77.9647 27.6428 77.5527 27.6955C77.1608 27.8103 76.9207 28.0272 76.7177 28.3787C76.564 28.6882 76.5544 29.0132 76.5504 29.3544C76.5497 29.4121 76.5497 29.4121 76.5489 29.471C76.5472 29.5973 76.5459 29.7235 76.5446 29.8498C76.5436 29.9377 76.5425 30.0256 76.5414 30.1135C76.5385 30.3442 76.5359 30.5748 76.5334 30.8055C76.5308 31.0412 76.5278 31.2769 76.525 31.5125C76.5194 31.9744 76.5141 32.4363 76.509 32.8982C76.2679 32.8982 76.0267 32.8982 75.7783 32.8982C75.7783 30.9559 75.7783 29.0135 75.7783 27.0123C76.0194 27.0123 76.2605 27.0123 76.509 27.0123C76.5262 27.2551 76.5434 27.4979 76.5612 27.7481C76.6042 27.6841 76.6473 27.6202 76.6916 27.5543C77.2276 26.8367 78.3131 26.761 79.0662 27.17Z" fill="#2962FF"/>
<path d="M61.2179 27.4325C61.7714 27.9039 62.0165 28.4577 62.1573 29.1667C62.1573 29.5136 62.1573 29.8604 62.1573 30.2178C60.7451 30.2178 59.3329 30.2178 57.8778 30.2178C57.9959 30.9521 57.9959 30.9521 58.2953 31.5841C58.3166 31.6179 58.3379 31.6517 58.3598 31.6866C58.5969 32.0104 58.9856 32.2034 59.3677 32.3014C59.8666 32.3734 60.3117 32.3114 60.758 32.0735C60.9745 31.8943 61.1956 31.6816 61.3223 31.4265C61.5977 31.4548 61.8054 31.5197 62.0529 31.6367C61.8267 32.1852 61.4888 32.5996 60.9427 32.8456C60.1516 33.1366 59.3564 33.1385 58.5795 32.8062C57.9084 32.4597 57.5051 31.8709 57.2495 31.1734C56.966 30.1715 57.091 29.0352 57.5708 28.1245C57.9087 27.552 58.4475 27.1527 59.0898 26.9811C59.8683 26.8653 60.5727 26.9614 61.2179 27.4325ZM58.4784 28.0808C58.1068 28.4938 57.8778 28.9766 57.8778 29.5346C59.0489 29.5346 60.2201 29.5346 61.4267 29.5346C61.4267 28.9473 61.2628 28.4863 60.8526 28.0631C60.1632 27.4388 59.1752 27.4558 58.4784 28.0808Z" fill="#2962FF"/>
<path d="M52.4401 27.3177C52.5141 27.372 52.587 27.4278 52.6586 27.4852C52.6907 27.5103 52.7228 27.5355 52.7559 27.5614C53.2154 27.9687 53.4472 28.6294 53.5459 29.2194C53.5459 29.5489 53.5459 29.8784 53.5459 30.2179C52.1336 30.2179 50.7214 30.2179 49.2664 30.2179C49.3696 30.8937 49.4668 31.4841 49.9988 31.9376C50.4423 32.2581 50.916 32.3777 51.4583 32.32C51.9647 32.2185 52.2939 31.9929 52.6065 31.5843C52.6581 31.5063 52.6581 31.5063 52.7108 31.4266C52.9494 31.4555 53.1635 31.5011 53.3893 31.5843C53.3694 31.9855 53.1087 32.2496 52.8315 32.5138C52.2857 32.9715 51.5798 33.1142 50.8842 33.0558C50.1474 32.9549 49.5884 32.6906 49.1098 32.1098C48.495 31.2683 48.4314 30.2009 48.5514 29.1929C48.6838 28.443 49.082 27.759 49.6969 27.3111C50.5356 26.7972 51.6055 26.7926 52.4401 27.3177ZM49.8229 28.1251C49.4623 28.5231 49.2664 29.0014 49.2664 29.5348C50.4375 29.5348 51.6086 29.5348 52.8152 29.5348C52.761 28.9343 52.6538 28.498 52.2411 28.0633C51.4788 27.4516 50.5561 27.4559 49.8229 28.1251Z" fill="#2962FF"/>
<path d="M73.0357 27.2393C73.1566 27.3148 73.2667 27.3958 73.3778 27.4852C73.4131 27.513 73.4484 27.5408 73.4848 27.5694C74.0235 28.0476 74.3271 28.8465 74.3783 29.5531C74.4312 30.5494 74.2848 31.5006 73.6257 32.2872C73.1337 32.805 72.5092 33.0456 71.8056 33.0689C71.1772 33.0612 70.5385 32.8472 70.0717 32.4137C69.4145 31.7002 69.1637 30.7843 69.1876 29.8279C69.2589 28.939 69.4973 28.1482 70.1584 27.5213C70.9589 26.8416 72.1185 26.7406 73.0357 27.2393ZM70.6118 28.0633C70.0973 28.637 69.9028 29.3884 69.9166 30.1488C69.9868 30.8811 70.2143 31.5566 70.7683 32.0573C71.1795 32.3226 71.5876 32.4212 72.0731 32.3726C72.4838 32.2773 72.7745 32.0986 73.0647 31.7945C73.1023 31.7555 73.14 31.7165 73.1788 31.6763C73.6414 30.9695 73.7535 30.1447 73.6047 29.3186C73.4675 28.7382 73.2114 28.1861 72.6993 27.8531C71.9923 27.4474 71.2344 27.5358 70.6118 28.0633Z" fill="#2962FF"/>
<path d="M42.5864 25.0674C44.4637 25.0674 46.3409 25.0674 48.275 25.0674C48.275 25.2928 48.275 25.5183 48.275 25.7506C47.4656 25.7506 46.6561 25.7506 45.8221 25.7506C45.8221 28.1091 45.8221 30.4677 45.8221 32.8977C45.5638 32.8977 45.3055 32.8977 45.0393 32.8977C45.0393 30.5392 45.0393 28.1806 45.0393 25.7506C44.2299 25.7506 43.4204 25.7506 42.5864 25.7506C42.5864 25.5251 42.5864 25.2997 42.5864 25.0674Z" fill="#2962FF"/>
<path d="M151.771 1.93085C152.251 1.9027 152.768 2.06662 153.137 2.37631C153.522 2.77673 153.666 3.17764 153.663 3.72585C153.651 4.19576 153.488 4.50537 153.174 4.84546C152.748 5.23073 152.263 5.33362 151.704 5.32316C151.156 5.27968 150.767 5.04118 150.409 4.62417C150.099 4.14138 150.061 3.71504 150.148 3.15269C150.197 2.99513 150.264 2.86807 150.357 2.73227C150.378 2.70057 150.399 2.66887 150.422 2.6362C150.698 2.27357 151.099 2.0326 151.546 1.95712C151.621 1.94855 151.696 1.9398 151.771 1.93085Z" fill="#2962FF"/>
<path d="M67.1516 27.2488C67.6267 27.5568 67.9598 27.9819 68.1065 28.5359C68.1065 28.6227 68.1065 28.7094 68.1065 28.7987C67.8654 28.7987 67.6243 28.7987 67.3758 28.7987C67.3317 28.7012 67.2876 28.6036 67.2421 28.5031C67.0596 28.1368 66.877 27.9517 66.5245 27.7575C66.0553 27.6053 65.6065 27.6055 65.1523 27.8084C64.6719 28.0719 64.361 28.4873 64.1923 29.0089C64.1044 29.3315 64.0692 29.6373 64.0716 29.9713C64.0721 30.0366 64.0721 30.0366 64.0725 30.1033C64.086 30.792 64.2732 31.4321 64.7762 31.9223C65.1447 32.225 65.5562 32.3599 66.031 32.34C66.4239 32.2848 66.792 32.1453 67.0627 31.8468C67.1907 31.6275 67.296 31.4048 67.3758 31.1636C67.617 31.1636 67.8581 31.1636 68.1065 31.1636C68.0792 31.7321 67.8712 32.1377 67.4586 32.5277C66.9166 32.9589 66.2817 33.114 65.6014 33.0555C64.9111 32.9492 64.4049 32.6823 63.9314 32.1621C63.3312 31.3375 63.1993 30.3022 63.3199 29.3069C63.4481 28.5459 63.792 27.8615 64.4011 27.3798C65.2414 26.8606 66.2741 26.756 67.1516 27.2488Z" fill="#2962FF"/>
<path d="M55.0073 25.0674C55.2312 25.0674 55.4551 25.0674 55.6858 25.0674C55.6858 27.6514 55.6858 30.2354 55.6858 32.8977C55.4619 32.8977 55.238 32.8977 55.0073 32.8977C55.0073 30.3137 55.0073 27.7297 55.0073 25.0674Z" fill="#2962FF"/>
</g>
<defs>
<clipPath id="clip0_134_29">
<rect width="180" height="35" fill="white"/>
</clipPath>
</defs>
</svg>
